# xmcd
#
# Track frame offsets:
#	150
#	16869
#	32313
#	52262
#	71823
#	88282
#	104702
#	119250
#	139582
#	156823
#	164593
#	174537
#
# Disc length: 2611 seconds
#
# Revision: 0
# Processed by: cddbd v1.5.2PL0 Copyright (c) Steve Scherf et al.
# Submitted via: audiograbber 1.83.01
#
DISCID=a60a310c
DTITLE=Chris de Burgh - The Getaway
DYEAR=1982
DGENRE=Pop
TTITLE0=Don't Pay The Ferryman
TTITLE1=Living On The Island
TTITLE2=Crying And Laughing
TTITLE3=I'm Counting On You
TTITLE4=The Getaway
TTITLE5=Ship To Shore
TTITLE6=All The Love I Have Inside
TTITLE7=Borderline
TTITLE8=Where Peaceful Waters Flow
TTITLE9=The Revolution
TTITLE10=Light A Fire
TTITLE11=Liberty
EXTD=
EXTT0=
EXTT1=
EXTT2=
EXTT3=
EXTT4=
EXTT5=
EXTT6=
EXTT7=
EXTT8=
EXTT9=
EXTT10=
EXTT11=
PLAYORDER=
